<svg width="512" height="512" viewBox="0 0 512 512" fill="none" xmlns="http://www.w3.org/2000/svg">
<g opacity="0.5">
<path d="M416 404.571C416 410.883 410.883 416 404.571 416L336 416C329.688 416 324.571 410.883 324.571 404.571L324.571 107.429C324.571 101.117 329.688 96 336 96L404.571 96C410.883 96 416 101.117 416 107.429L416 404.571Z" fill="#BF5AF2"/>
<path d="M301.714 404.571C301.714 410.883 296.598 416 290.286 416L107.429 416C101.117 416 96 410.883 96 404.571L96 336C96 329.688 101.117 324.571 107.429 324.571L290.286 324.571C296.598 324.571 301.714 329.688 301.714 336L301.714 404.571Z" fill="#BF5AF2"/>
</g>
<path d="M96 107.429C96 101.117 101.117 96 107.429 96H176C182.312 96 187.429 101.117 187.429 107.429V404.571C187.429 410.883 182.312 416 176 416H107.429C101.117 416 96 410.883 96 404.571V107.429Z" fill="#BF5AF2"/>
<path d="M210.286 107.429C210.286 101.117 215.402 96 221.714 96H404.571C410.883 96 416 101.117 416 107.429V176C416 182.312 410.883 187.429 404.571 187.429H221.714C215.402 187.429 210.286 182.312 210.286 176V107.429Z" fill="#BF5AF2"/>
<path d="M210.286 221.714C210.286 215.402 215.402 210.286 221.714 210.286H290.286C296.598 210.286 301.714 215.402 301.714 221.714V290.286C301.714 296.598 296.598 301.714 290.286 301.714H221.714C215.402 301.714 210.286 296.598 210.286 290.286V221.714Z" fill="#BF5AF2"/>
</svg>
