<svg width="512" height="512" viewBox="0 0 512 512" fill="none" xmlns="http://www.w3.org/2000/svg">
<rect width="512" height="512" rx="8" fill="#141414"/>
<g opacity="0.5">
<path d="M480 464C480 472.837 472.837 480 464 480L368 480C359.163 480 352 472.837 352 464L352 48C352 39.1635 359.163 32 368 32L464 32C472.837 32 480 39.1635 480 48L480 464Z" fill="#BF5AF2"/>
<path d="M320 464C320 472.837 312.837 480 304 480L48 480C39.1634 480 32 472.837 32 464L32 368C32 359.163 39.1635 352 48 352L304 352C312.837 352 320 359.163 320 368L320 464Z" fill="#BF5AF2"/>
</g>
<path d="M32 48C32 39.1634 39.1634 32 48 32H144C152.837 32 160 39.1634 160 48V464C160 472.837 152.837 480 144 480H48C39.1634 480 32 472.837 32 464V48Z" fill="#BF5AF2"/>
<path d="M192 48C192 39.1634 199.163 32 208 32H464C472.837 32 480 39.1634 480 48V144C480 152.837 472.837 160 464 160H208C199.163 160 192 152.837 192 144V48Z" fill="#BF5AF2"/>
<path d="M192 208C192 199.163 199.163 192 208 192H304C312.837 192 320 199.163 320 208V304C320 312.837 312.837 320 304 320H208C199.163 320 192 312.837 192 304V208Z" fill="#BF5AF2"/>
</svg>
